<svg xmlns="http://www.w3.org/2000/svg" viewBox="0 0 136.93 25.55"><defs><style>.cls-1{fill:#fff;}.cls-2{fill:#f40;}</style></defs><g id="Layer_2" data-name="Layer 2"><g id="Layer_1-2" data-name="Layer 1"><path class="cls-1" d="M0,19.54V4.63H3.73V6.25h.54A3.5,3.5,0,0,1,5.56,4.94a4.49,4.49,0,0,1,2.38-.55A4.67,4.67,0,0,1,10.49,5,4.2,4.2,0,0,1,12,6.61h.54A4.41,4.41,0,0,1,14,5a4.68,4.68,0,0,1,2.64-.63A5.36,5.36,0,0,1,19.1,5a4.47,4.47,0,0,1,1.8,1.78,5.88,5.88,0,0,1,.68,3v9.8H17.79V10a2.48,2.48,0,0,0-.63-1.85,2.43,2.43,0,0,0-1.77-.62,2.49,2.49,0,0,0-2,.83,3.54,3.54,0,0,0-.71,2.36v8.81H8.9V10a2.48,2.48,0,0,0-.63-1.85,2.45,2.45,0,0,0-1.78-.62,2.49,2.49,0,0,0-2,.83,3.54,3.54,0,0,0-.7,2.36v8.81Z"/><path class="cls-1" d="M25.67,19.54V4.63h3.72V6.31h.55A2.36,2.36,0,0,1,31,5a3.67,3.67,0,0,1,1.79-.42h1.8V7.93H32.76a3.61,3.61,0,0,0-2.37.77,2.89,2.89,0,0,0-.94,2.36v8.48Z"/><path class="cls-1" d="M37.57,25.55V4.63H41.3v1.8h.54a4.64,4.64,0,0,1,1.59-1.55,5.87,5.87,0,0,1,3.1-.67,6.44,6.44,0,0,1,5.8,3.48,8.62,8.62,0,0,1,.93,4.15v.48a8.57,8.57,0,0,1-.93,4.15,6.46,6.46,0,0,1-2.47,2.6,6.54,6.54,0,0,1-3.33.89,7,7,0,0,1-2.27-.32,4.27,4.27,0,0,1-1.47-.81,4.78,4.78,0,0,1-.89-1h-.54v7.73Zm7.81-8.9a4,4,0,0,0,2.93-1.13,4.34,4.34,0,0,0,1.16-3.29v-.3A4.36,4.36,0,0,0,48.3,8.64a4.32,4.32,0,0,0-5.83,0,4.36,4.36,0,0,0-1.17,3.29v.3a4.35,4.35,0,0,0,1.17,3.29A4,4,0,0,0,45.38,16.65Z"/><path class="cls-2" d="M56,12.14v-.48a8,8,0,0,1,.94-4,6.57,6.57,0,0,1,2.48-2.56,6.66,6.66,0,0,1,3.38-.88,5.47,5.47,0,0,1,3.09.72,5.21,5.21,0,0,1,1.53,1.5H68V4.63h3.72V22.18a3.35,3.35,0,0,1-.9,2.45,3.22,3.22,0,0,1-2.4.92h-10V22.24h8.65c.56,0,.85-.3.85-.9V17.46h-.55a4.83,4.83,0,0,1-.84,1,4.3,4.3,0,0,1-1.44.83,7.28,7.28,0,0,1-5.66-.56A6.48,6.48,0,0,1,57,16.16,8,8,0,0,1,56,12.14Zm7.88,4.15A3.94,3.94,0,0,0,68,12.05v-.3a4.13,4.13,0,0,0-1.16-3.14,4.44,4.44,0,0,0-5.85,0,4.1,4.1,0,0,0-1.17,3.14v.3a3.92,3.92,0,0,0,4.09,4.24Z"/><path class="cls-2" d="M80.55,20a7.05,7.05,0,0,1-2.86-.56,4.71,4.71,0,0,1-2-1.62,4.47,4.47,0,0,1-.73-2.6,4.33,4.33,0,0,1,.73-2.57,4.56,4.56,0,0,1,2-1.56,8,8,0,0,1,3-.53h4.09V9.68A2.34,2.34,0,0,0,84.15,8a2.83,2.83,0,0,0-2.1-.68,3,3,0,0,0-2.1.65,3.07,3.07,0,0,0-.9,1.67L75.56,8.42a6,6,0,0,1,1.16-2.09,5.86,5.86,0,0,1,2.13-1.54,8.12,8.12,0,0,1,3.26-.58,6.91,6.91,0,0,1,4.66,1.47A5.33,5.33,0,0,1,88.48,10v5.56c0,.6.28.9.85.9h1.2v3.13H88A3,3,0,0,1,86.17,19a1.73,1.73,0,0,1-.72-1.45v0h-.57a3.91,3.91,0,0,1-.54.95,3.65,3.65,0,0,1-1.33,1A5.57,5.57,0,0,1,80.55,20Zm.66-3.07a3.75,3.75,0,0,0,2.6-.89,3,3,0,0,0,1-2.35v-.31H81a2.63,2.63,0,0,0-1.65.46,1.48,1.48,0,0,0-.6,1.26,1.62,1.62,0,0,0,.63,1.32A2.85,2.85,0,0,0,81.21,16.89Z"/><path class="cls-2" d="M99.36,20a8.26,8.26,0,0,1-4.77-1.27,5.16,5.16,0,0,1-2.26-3.6l3.49-.9a3.7,3.7,0,0,0,.7,1.65,2.71,2.71,0,0,0,1.24.86,4.84,4.84,0,0,0,1.6.25,3.31,3.31,0,0,0,2-.46,1.41,1.41,0,0,0,.63-1.16,1.2,1.2,0,0,0-.6-1.07,5.74,5.74,0,0,0-1.93-.61l-.84-.16a14.43,14.43,0,0,1-2.85-.82,5.24,5.24,0,0,1-2.08-1.46,3.61,3.61,0,0,1-.78-2.4A4,4,0,0,1,94.49,5.4a7,7,0,0,1,4.27-1.19,7.27,7.27,0,0,1,4.15,1.11,5.1,5.1,0,0,1,2.16,2.92l-3.51,1.08a2.47,2.47,0,0,0-1-1.63,3.27,3.27,0,0,0-1.82-.48,3,3,0,0,0-1.65.38,1.18,1.18,0,0,0-.57,1,1.14,1.14,0,0,0,.6,1.06,5,5,0,0,0,1.62.53l.85.15a17.45,17.45,0,0,1,3,.8,5.06,5.06,0,0,1,2.17,1.41,3.66,3.66,0,0,1,.8,2.48,4.27,4.27,0,0,1-1.7,3.62A7.43,7.43,0,0,1,99.36,20Z"/><path class="cls-2" d="M114.33,19.54a3.24,3.24,0,0,1-2.39-.92,3.31,3.31,0,0,1-.91-2.45V7.75H107.3V4.63H111V0h3.78V4.63h4.09V7.75h-4.09v7.76c0,.6.28.9.85.9h2.88v3.13Z"/><path class="cls-2" d="M127,20a7,7,0,0,1-2.86-.56,4.65,4.65,0,0,1-2-1.62,4.48,4.48,0,0,1-.74-2.6,4.34,4.34,0,0,1,.74-2.57,4.48,4.48,0,0,1,2-1.56,8,8,0,0,1,3-.53h4.09V9.68A2.38,2.38,0,0,0,130.56,8a2.83,2.83,0,0,0-2.1-.68,3,3,0,0,0-2.11.65,3.07,3.07,0,0,0-.9,1.67L122,8.42a6,6,0,0,1,1.15-2.09,5.82,5.82,0,0,1,2.14-1.54,8.09,8.09,0,0,1,3.26-.58,6.94,6.94,0,0,1,4.66,1.47A5.33,5.33,0,0,1,134.89,10v5.56q0,.9.84.9h1.2v3.13h-2.52a3,3,0,0,1-1.83-.54,1.71,1.71,0,0,1-.73-1.45v0h-.57a3.91,3.91,0,0,1-.54.95,3.53,3.53,0,0,1-1.32,1A5.57,5.57,0,0,1,127,20Zm.66-3.07a3.77,3.77,0,0,0,2.6-.89,3,3,0,0,0,1-2.35v-.31h-3.81a2.64,2.64,0,0,0-1.66.46,1.48,1.48,0,0,0-.6,1.26,1.62,1.62,0,0,0,.63,1.32A2.86,2.86,0,0,0,127.62,16.89Z"/></g></g></svg>